<svg width="18" height="18" viewBox="0 0 18 18" fill="none" xmlns="http://www.w3.org/2000/svg">
<path fill-rule="evenodd" clip-rule="evenodd" d="M6.99293 11.6724C10.0671 11.6724 12.6946 12.1382 12.6946 13.999C12.6946 15.8599 10.0846 16.339 6.99293 16.339C3.91793 16.339 1.29126 15.8774 1.29126 14.0157C1.29126 12.154 3.90043 11.6724 6.99293 11.6724Z" stroke="url(#paint0_linear_1136_2088)" stroke-width="1.5" stroke-linecap="round" stroke-linejoin="round"/>
<path fill-rule="evenodd" clip-rule="evenodd" d="M6.99289 9.01659C4.97456 9.01659 3.33789 7.38075 3.33789 5.36242C3.33789 3.34409 4.97456 1.70825 6.99289 1.70825C9.01039 1.70825 10.6471 3.34409 10.6471 5.36242C10.6546 7.37325 9.02956 9.00909 7.01872 9.01659H6.99289Z" stroke="url(#paint1_linear_1136_2088)" stroke-width="1.5" stroke-linecap="round" stroke-linejoin="round"/>
<path d="M12.736 8.06814C14.0701 7.88064 15.0976 6.73564 15.1001 5.34981C15.1001 3.98397 14.1043 2.85064 12.7985 2.63647" stroke="url(#paint2_linear_1136_2088)" stroke-width="1.5" stroke-linecap="round" stroke-linejoin="round"/>
<path d="M14.4962 11.2769C15.7887 11.4694 16.6912 11.9227 16.6912 12.856C16.6912 13.4985 16.2662 13.9152 15.5795 14.176" stroke="url(#paint3_linear_1136_2088)" stroke-width="1.5" stroke-linecap="round" stroke-linejoin="round"/>
<defs>
<linearGradient id="paint0_linear_1136_2088" x1="12.6946" y1="16.339" x2="-2.06692" y2="13.5478" gradientUnits="userSpaceOnUse">
<stop stop-color="#A192FD"/>
<stop offset="1" stop-color="#9DCEFF"/>
</linearGradient>
<linearGradient id="paint1_linear_1136_2088" x1="10.6471" y1="9.01659" x2="0.905446" y2="8.26268" gradientUnits="userSpaceOnUse">
<stop stop-color="#A192FD"/>
<stop offset="1" stop-color="#9DCEFF"/>
</linearGradient>
<linearGradient id="paint2_linear_1136_2088" x1="15.1001" y1="8.06814" x2="11.9339" y2="7.9615" gradientUnits="userSpaceOnUse">
<stop stop-color="#A192FD"/>
<stop offset="1" stop-color="#9DCEFF"/>
</linearGradient>
<linearGradient id="paint3_linear_1136_2088" x1="16.6912" y1="14.176" x2="13.7583" y2="14.0042" gradientUnits="userSpaceOnUse">
<stop stop-color="#A192FD"/>
<stop offset="1" stop-color="#9DCEFF"/>
</linearGradient>
</defs>
</svg>
